<svg width="16" height="10" viewBox="0 0 16 10" fill="none" xmlns="http://www.w3.org/2000/svg">
<path d="M8.48454 9.43159C8.49429 9.4199 8.49819 9.4043 8.50794 9.3926L15.315 1.87189C15.6952 1.44876 15.6952 0.762405 15.315 0.33928C15.3111 0.33538 15.3072 0.333431 15.3033 0.331481C15.2187 0.229025 15.1127 0.146277 14.9928 0.0890225C14.8729 0.0317675 14.742 0.00138577 14.6091 0H0.993077C0.857779 0.00218624 0.72461 0.0340542 0.60298 0.0933534C0.481349 0.152653 0.374223 0.237937 0.289168 0.34318L0.285269 0.33928C0.101258 0.552179 0 0.824184 0 1.10558C0 1.38699 0.101258 1.65899 0.285269 1.87189L7.10792 9.43159C7.19285 9.53116 7.29838 9.61111 7.41721 9.66593C7.53605 9.72076 7.66536 9.74915 7.79623 9.74915C7.9271 9.74915 8.05641 9.72076 8.17524 9.66593C8.29407 9.61111 8.3996 9.53116 8.48454 9.43159Z" fill="#1FFFA3"/>
</svg>
