<svg width="30" height="30" viewBox="0 0 30 30" fill="none" xmlns="http://www.w3.org/2000/svg">
<path fill-rule="evenodd" clip-rule="evenodd" d="M15 30C23.2843 30 30 23.2843 30 15C30 6.71573 23.2843 0 15 0C6.71573 0 0 6.71573 0 15C0 23.2843 6.71573 30 15 30Z" fill="white"/>
<path d="M14.5833 16.9792C15.9065 16.9792 16.9792 15.9065 16.9792 14.5833C16.9792 13.2602 15.9065 12.1875 14.5833 12.1875C13.2602 12.1875 12.1875 13.2602 12.1875 14.5833C12.1875 15.9065 13.2602 16.9792 14.5833 16.9792Z" fill="#000049"/>
<path d="M17.8789 7.0957H11.2904C10.1784 7.0957 9.11196 7.53743 8.32567 8.32372C7.53939 9.11 7.09766 10.1764 7.09766 11.2884V17.877C7.09766 18.9889 7.53939 20.0554 8.32567 20.8416C9.11196 21.6279 10.1784 22.0697 11.2904 22.0697H17.8789C18.9909 22.0697 20.0573 21.6279 20.8436 20.8416C21.6299 20.0554 22.0716 18.9889 22.0716 17.877V11.2884C22.0716 10.1764 21.6299 9.11 20.8436 8.32372C20.0573 7.53743 18.9909 7.0957 17.8789 7.0957ZM14.5846 18.1764C13.8739 18.1764 13.179 17.9657 12.5881 17.5708C11.9971 17.1759 11.5364 16.6146 11.2644 15.958C10.9924 15.3013 10.9213 14.5787 11.0599 13.8816C11.1986 13.1845 11.5409 12.5441 12.0435 12.0415C12.5461 11.5389 13.1864 11.1967 13.8835 11.058C14.5806 10.9193 15.3032 10.9905 15.9599 11.2625C16.6166 11.5345 17.1778 11.9951 17.5727 12.5861C17.9676 13.1771 18.1784 13.8719 18.1784 14.5827C18.1784 15.5358 17.7998 16.4499 17.1258 17.1238C16.4518 17.7978 15.5378 18.1764 14.5846 18.1764ZM18.4779 11.5879C18.3002 11.5879 18.1265 11.5352 17.9787 11.4365C17.831 11.3378 17.7158 11.1974 17.6478 11.0333C17.5798 10.8691 17.562 10.6885 17.5967 10.5142C17.6314 10.3399 17.7169 10.1798 17.8426 10.0542C17.9682 9.92851 18.1283 9.84295 18.3026 9.80828C18.4769 9.77361 18.6575 9.7914 18.8217 9.85941C18.9859 9.92741 19.1262 10.0426 19.2249 10.1903C19.3236 10.3381 19.3763 10.5118 19.3763 10.6895C19.3763 10.9277 19.2816 11.1563 19.1132 11.3247C18.9447 11.4932 18.7161 11.5879 18.4779 11.5879Z" fill="#000049"/>
</svg>
