<svg width="20" height="20" viewBox="0 0 20 20" fill="none" xmlns="http://www.w3.org/2000/svg">
<path fill-rule="evenodd" clip-rule="evenodd" d="M17.4366 0H2.56342C1.15492 0 0 1.15504 0 2.56338V17.4366C0 18.8449 1.15492 20 2.56342 20H17.4365C18.8452 20 20 18.8449 20 17.4366V2.56338C20 1.15504 18.8452 0 17.4366 0ZM6.875 9.65883V14.4792C6.875 15.2271 6.26872 15.8333 5.52083 15.8333C4.77295 15.8333 4.16667 15.2271 4.16667 14.4792V9.39583C4.16667 8.64795 4.77295 8.04167 5.52083 8.04167C6.26872 8.04167 6.875 8.64795 6.875 9.39583V9.65883ZM5.51542 6.88033C4.76196 6.88033 4.15058 6.26942 4.15058 5.5155C4.15058 4.76146 4.76196 4.15129 5.51542 4.15129C6.26992 4.15129 6.88071 4.7615 6.88071 5.5155C6.88071 6.26942 6.26996 6.88033 5.51542 6.88033ZM15.841 11.5833C15.8368 11.5833 15.8333 11.5868 15.8333 11.591V14.6667C15.8333 15.311 15.311 15.8333 14.6667 15.8333C14.0223 15.8333 13.5 15.311 13.5 14.6667V12.0486C13.5 11.1424 13.4019 9.97679 12.1598 9.97679C10.8989 9.97679 10.7083 10.9634 10.7083 11.9833V14.7083C10.7083 15.3297 10.2047 15.8333 9.58333 15.8333C8.96201 15.8333 8.45833 15.3297 8.45833 14.7083V9.125C8.45833 8.52669 8.94336 8.04167 9.54167 8.04167H10.1042C10.3918 8.04167 10.625 8.27485 10.625 8.5625V9.06881C10.625 9.07683 10.6315 9.08333 10.6395 9.08333C10.6448 9.08333 10.6496 9.0805 10.6522 9.0759C10.978 8.4961 11.768 8.04083 12.9419 8.04083C14.9282 8.04083 15.6032 8.98013 15.7879 10.4497C15.8315 10.7924 15.8485 11.1621 15.8487 11.5756C15.8487 11.5799 15.8452 11.5833 15.841 11.5833Z" fill="#0762C8"/>
</svg>
